<svg xmlns="http://www.w3.org/2000/svg" width="28.676" height="44.606" viewBox="0 0 28.676 44.606"><path d="M83.577,90.114v1.7a2.7,2.7,0,0,1-2.288,2.671l-.419,1.545a1.923,1.923,0,0,1-1.857,1.425H74.857A1.923,1.923,0,0,1,73,96.031l-.407-1.545a2.71,2.71,0,0,1-2.3-2.683V90.1a1.636,1.636,0,0,1,1.641-1.641h10A1.654,1.654,0,0,1,83.577,90.114Zm7.7-22.926a14.269,14.269,0,0,1-4.025,9.954,13.151,13.151,0,0,0-3.522,7.139,2.371,2.371,0,0,1-2.348,2h-8.9a2.348,2.348,0,0,1-2.336-1.988A13.3,13.3,0,0,0,66.6,77.13a14.339,14.339,0,1,1,24.675-9.942ZM78.558,58.5a1.618,1.618,0,0,0-1.617-1.617A10.359,10.359,0,0,0,66.592,67.236a1.617,1.617,0,1,0,3.234,0,7.123,7.123,0,0,1,7.115-7.115A1.61,1.61,0,0,0,78.558,58.5Z" transform="translate(-62.603 -52.851)"/></svg>