<svg xmlns="http://www.w3.org/2000/svg" width="20.722" height="19.297" viewBox="0 0 20.722 19.297"><g transform="translate(0 -16.6)"><g transform="translate(0 16.6)"><path d="M10.953,188.938a.578.578,0,0,0,0,.82,2.412,2.412,0,0,1,0,3.408L6.018,198.1a2.412,2.412,0,0,1-3.408,0l-.743-.743a2.412,2.412,0,0,1,0-3.408L6.8,189.015a.58.58,0,1,0-.82-.82l-4.936,4.936a3.565,3.565,0,0,0,0,5.047l.743.743a3.575,3.575,0,0,0,5.047,0l4.936-4.936a3.575,3.575,0,0,0,0-5.048A.578.578,0,0,0,10.953,188.938Z" transform="translate(0 -180.667)"/><path d="M196.069,18.386l-.743-.743a3.575,3.575,0,0,0-5.048,0l-4.936,4.936a3.575,3.575,0,0,0,0,5.047.58.58,0,1,0,.82-.82,2.412,2.412,0,0,1,0-3.408l4.936-4.936a2.412,2.412,0,0,1,3.408,0l.743.743a2.412,2.412,0,0,1,0,3.408l-4.936,4.936a.582.582,0,0,0,.408.991.565.565,0,0,0,.408-.172l4.936-4.936a3.57,3.57,0,0,0,0-5.047Z" transform="translate(-176.39 -16.6)"/></g></g></svg>