<svg xmlns="http://www.w3.org/2000/svg" width="71.916" height="44.925" viewBox="0 0 71.916 44.925"><path d="M8.994-15.75v5.284H19.6v5.25H8.994V3.018H2.2V-21H21.037v5.25Zm30.4,14.1H29.238L27.351,3.018H20.42L31.022-21h6.691L48.349,3.018H41.281ZM37.4-6.658l-3.088-7.686L31.228-6.658ZM73.293-21,63,3.018H56.309L46.05-21h7.343L59.912-5.354,66.568-21ZM16.634,7.593V23.6H12.906L5.838,15.072V23.6H1.4V7.593H5.128L12.2,16.125V7.593ZM27.911,23.925a9.577,9.577,0,0,1-4.563-1.075A8.015,8.015,0,0,1,19.013,15.6a8.015,8.015,0,0,1,4.335-7.251,9.577,9.577,0,0,1,4.563-1.075,9.577,9.577,0,0,1,4.563,1.075A8.015,8.015,0,0,1,36.809,15.6a8.015,8.015,0,0,1-4.335,7.251A9.577,9.577,0,0,1,27.911,23.925Zm0-3.751a4.289,4.289,0,0,0,2.2-.572,4.113,4.113,0,0,0,1.555-1.613,4.883,4.883,0,0,0,.572-2.39,4.883,4.883,0,0,0-.572-2.39A4.113,4.113,0,0,0,30.107,11.6a4.5,4.5,0,0,0-4.392,0,4.113,4.113,0,0,0-1.555,1.613,4.883,4.883,0,0,0-.572,2.39,4.883,4.883,0,0,0,.572,2.39A4.113,4.113,0,0,0,25.715,19.6,4.289,4.289,0,0,0,27.911,20.173Zm14.456-8.99H37.45V7.593H51.792v3.591H46.9V23.6H42.367ZM66.339,20.1v3.5H53.484V7.593H66.042v3.5H57.968v2.7h7.114v3.385H57.968V20.1Zm4.369,3.706a2.56,2.56,0,0,1-1.853-.732,2.471,2.471,0,0,1-.755-1.853,2.444,2.444,0,0,1,.743-1.853,2.82,2.82,0,0,1,3.74,0,2.464,2.464,0,0,1,.732,1.853,2.491,2.491,0,0,1-.743,1.853A2.549,2.549,0,0,1,70.708,23.81Z" transform="translate(-1.4 21)"/></svg>