<svg xmlns="http://www.w3.org/2000/svg" width="52.058" height="42.164" viewBox="0 0 52.058 42.164"><g transform="translate(-329.684 -496.751)"><path d="M17.333,44.779,34.719,34.741a.881.881,0,0,0,0-1.526L17.333,23.174a.881.881,0,0,0-1.322.763v4.674H1a.882.882,0,0,0-.881.881V38.46A.882.882,0,0,0,1,39.341H16.011v4.674a.883.883,0,0,0,1.322.765Z" transform="translate(364.843 551.809) rotate(180)"/><path d="M56.867,0H38.907a.882.882,0,0,0-.881.881V3.526a.882.882,0,0,0,.881.881h17.96a2.105,2.105,0,0,1,2.1,2.1V35.654a2.105,2.105,0,0,1-2.1,2.1H38.907a.882.882,0,0,0-.881.881v2.644a.882.882,0,0,0,.881.881h17.96a6.517,6.517,0,0,0,6.51-6.51V6.511A6.518,6.518,0,0,0,56.867,0Z" transform="translate(318.364 496.751)"/></g></svg>