<svg xmlns="http://www.w3.org/2000/svg" width="40.582" height="32.964" viewBox="0 0 40.582 32.964"><path d="M40.583,61.341a16.624,16.624,0,0,1-4.78,1.311,8.36,8.36,0,0,0,3.659-4.6,16.783,16.783,0,0,1-5.29,2.021,8.331,8.331,0,0,0-14.186,7.59,23.635,23.635,0,0,1-17.158-8.7A8.335,8.335,0,0,0,5.4,70.075,8.326,8.326,0,0,1,1.634,69.03v.1A8.333,8.333,0,0,0,8.311,77.3a8.433,8.433,0,0,1-2.194.292,7.99,7.99,0,0,1-1.567-.155,8.329,8.329,0,0,0,7.775,5.782A16.7,16.7,0,0,1,1.987,86.774,17.692,17.692,0,0,1,0,86.66a23.532,23.532,0,0,0,12.761,3.746c15.314,0,23.685-12.685,23.685-23.685l-.028-1.078A16.624,16.624,0,0,0,40.583,61.341Z" transform="translate(-0.001 -57.441)" fill="#010002"/></svg>